# xmcd CD database file
#
# Track frame offsets:
#	150
#	34269
#	63674
#	98038
#	122411
#	159537
#	189076
#	214728
#	248213
#	281942
#	304494
#	338733
#
# Disc length: 4771 seconds
#
# Revision: 0
# Processed by: cddbd v1.5.2PL0 Copyright (c) Steve Scherf et al.
# Submitted via: CDex 1.51
#
DISCID=ae12a10c
DTITLE=Herbie Hancock - River: The Joni Letters
DYEAR=2007
DGENRE=Jazz
TTITLE0=Court and Spark
TTITLE1=Edith and the Kingpin
TTITLE2=Both Sides Now
TTITLE3=River
TTITLE4=Sweet Bird
TTITLE5=The Tea Leaf Prophecy (Lay Down Your Arms)
TTITLE6=Solitude
TTITLE7=Amelia
TTITLE8=Nefertiti
TTITLE9=The Jungle Line
TTITLE10=A Case of You
TTITLE11=All I Want
EXTD=YEAR: 2007
EXTT0=
EXTT1=
EXTT2=
EXTT3=
EXTT4=
EXTT5=
EXTT6=
EXTT7=
EXTT8=
EXTT9=
EXTT10=
EXTT11=
PLAYORDER=
